<?xml version="1.0" encoding="utf-8"?>
<!-- Generator: Adobe Illustrator 25.4.1, SVG Export Plug-In . SVG Version: 6.00 Build 0)  -->
<svg version="1.1" id="svg18" xmlns="http://www.w3.org/2000/svg" xmlns:xlink="http://www.w3.org/1999/xlink" x="0px" y="0px"
	 viewBox="0 0 782 772.3" style="enable-background:new 0 0 782 772.3;" xml:space="preserve">
<style type="text/css">
	.st0{fill:#244583;}
</style>
<g id="layer6">
	<g id="SvgjsG1909">
		<g id="g882">
			<g id="g880">
				<path id="path854" class="st0" d="M386.1,0C173,0,0,173,0,386.1s173,386.1,386.1,386.1c213.1-0.3,385.8-173,386.1-386.1
					C772.3,173,599.3,0,386.1,0z M386.1,16.9c203.7,0.3,368.9,165.6,369.3,369.3c0,204-165.2,369.3-369.3,369.3
					S16.9,590.2,16.9,386.1S182.1,16.9,386.1,16.9z"/>
				<path id="path856" class="st0" d="M386.1,729.8c-20,0-40-1.7-59.7-5.1c-3.1-0.3-5.7-2.4-6.7-5.4c-1.1-2.8-0.6-6.1,1.3-8.4
					c2-2.3,5.1-3.4,8.1-2.7c37.6,6.4,76,6.4,113.6,0c4.7-0.7,9.1,2.4,9.8,6.7c0.7,4.7-2.4,9.1-6.7,9.8
					C426.1,728.1,406.1,729.8,386.1,729.8L386.1,729.8z M218.5,685.3c-1.4,0-2.8-0.3-4-1C179.9,664,149,638,123.1,607.4
					c-3-3.5-2.5-8.8,1-11.8s8.8-2.5,11.8,1c24.4,29.2,53.8,53.8,86.7,72.8c3.2,2,4.9,5.8,4,9.4C225.9,682.7,222.4,685.4,218.5,685.3
					z M554.1,685.3c-3.7-0.1-7-2.5-8.1-6.1c-1-3.7,0.7-7.6,4-9.4c32.9-19.2,62.4-43.8,87-72.8c1.9-2.4,5-3.6,8.1-3
					c3,0.7,5.4,2.7,6.8,5.4c1,2.9,0.4,6.1-1.7,8.4c-25.7,30.7-56.6,56.7-91.4,76.5C556.7,684.6,555.4,685,554.1,685.3L554.1,685.3z
					 M71.2,509.9c-3.6,0-6.8-2.3-8.1-5.7c-13.9-37.7-20.8-77.5-20.6-117.7c0.1-2.2,0.9-4.4,2.4-6.1c1.6-1.6,3.8-2.5,6.1-2.4
					c4.6,0,8.4,3.7,8.4,8.3c0,0.1,0,0.1,0,0.2c0,38.1,6.7,75.9,19.9,111.6c1.6,4.3-0.6,9.2-5,10.8c0,0-0.1,0-0.1,0
					C73.2,509.3,72.2,509.7,71.2,509.9L71.2,509.9z M701.4,509.6c-1,0.1-2-0.1-3-0.3c-2.1-0.8-3.8-2.4-4.7-4.4c-1-2-1.1-4.3-0.3-6.4
					c13.1-35.9,19.7-73.8,19.6-112v-0.7c0-4.7,3.8-8.4,8.4-8.4c4.7,0,8.4,3.8,8.4,8.4c0,0,0,0,0,0v0.7c-0.1,40.1-7,80-20.6,117.7
					C708.2,507.2,704.8,509.2,701.4,509.6L701.4,509.6z M70.8,280.2c-2.8,0-5.5-1.4-7.1-3.7c-1.7-2.2-2-5.2-1-7.8
					C76.4,231,96.6,196,122.4,165.2c2.9-3.5,8-4.1,11.5-1.2c0.1,0.1,0.2,0.1,0.3,0.2c3.4,3,4,8.4,1,11.8
					c-24.6,29.2-43.8,62.5-56.7,98.5C77.6,277.9,74.4,280.3,70.8,280.2L70.8,280.2z M701.1,279.2c-3.5,0-6.7-2.2-8.1-5.4
					c-13.1-35.8-32.4-69-57-98.1c-1.9-2.4-2.5-5.6-1.3-8.4c1-2.9,3.4-4.9,6.4-5.4c3-0.4,6.1,0.7,8.1,3c25.9,30.6,46.2,65.5,60,103.2
					c1.6,4.3-0.6,9.2-5,10.8c0,0-0.1,0-0.1,0C703.1,278.9,702.1,279.2,701.1,279.2L701.1,279.2z M218.2,104.2
					c-3.8-0.1-7.1-2.7-8.1-6.4c-1-3.7,0.7-7.6,4-9.4c34.6-20.2,72.5-34.1,112-41.1c4.7-0.8,9.1,2.3,9.9,7c0.3,1.5,0.1,3.1-0.4,4.5
					c-0.9,2.9-3.4,5-6.4,5.4c-37.5,6.7-73.6,20-106.6,39.1C221.2,103.8,219.7,104.2,218.2,104.2L218.2,104.2z M553.4,103.9
					c-1.4,0-2.8-0.3-4-1c-33.1-19-69.3-32.1-106.9-38.8c-4.4-1.1-7.1-5.3-6.4-9.8c0.8-4.4,5-7.4,9.4-6.7C485,54.4,523,68.1,557.8,88
					c3.3,1.9,5,5.7,4,9.4C560.5,101,557.2,103.5,553.4,103.9L553.4,103.9z"/>
				<path id="path858" class="st0" d="M386.1,685.3C220.9,685.3,87,551.4,87,386.1S220.9,87,386.1,87s299.1,133.9,299.1,299.1
					C684.9,551,551,684.9,386.1,685.3z M386.1,103.9c-155.8,0-282.3,126.5-282.3,282.3s126.5,282.3,282.3,282.3
					s282.3-126.5,282.3-282.3C668.1,230.3,541.9,104.2,386.1,103.9z"/>
				<path id="path860" class="st0" d="M370.3,470.4c-0.7,0.1-1.4-0.1-2-0.3c-49.8-13.2-79.4-64.2-66.2-113.9
					c3.4-12.9,9.5-24.9,18-35.2v-0.3c2-2.4,4-4.7,6.1-6.8l75.2-75.2c36.3-36.5,95.4-36.6,131.8-0.2c11.7,11.6,20,26.1,24.3,42.1
					c8.7,32.2-0.6,66.6-24.3,90L458,445.8c-2.4,2.4-4.7,4.4-7.1,6.4c-3.7,2.9-8.9,2.2-11.8-1.5c-2.4-3-2.4-7.3,0-10.4
					c15.5-19.1,20.9-44.4,14.5-68.1c-0.8-2.9,0-5.9,2-8.1l35.4-35.4c12.8-13.4,12.5-34.5-0.7-47.5c-13.2-13.1-34.4-13.5-47.5-0.7
					l-75.2,75.2c-13.3,13.3-13.3,34.9,0,48.2c11.4,11.4,29.3,13.2,42.8,4.4c3.3-2.1,7.6-1.7,10.5,1c2.8,2.8,3.2,7.2,1,10.5
					c-1.9,2.9-4,5.6-6.4,8.1l-39.8,39.8C374.7,469.7,372.3,470.4,370.3,470.4L370.3,470.4z M332.9,331.8
					c-15.8,19.5-21,45.4-13.9,69.5c7.1,24,25.3,43.1,48.9,51.3l21.6-21.6c-28.2-1.8-49.6-26.2-47.7-54.4
					c0.8-12.1,5.9-23.6,14.3-32.3l75.2-74.9c19.9-19.9,52.2-19.9,72.2,0s19.9,52.2,0,72.2l-32,32c1.3,6.4,2,13,2,19.6
					c0.1,5.4-0.4,10.8-1.3,16.2l49.6-49.2c30-30,30-78.6,0-108.2c-30-30-78.6-30-108.2,0l-75.2,75.2
					C336.3,327.8,334.6,329.5,332.9,331.8L332.9,331.8z"/>
				<path id="path862" class="st0" d="M392.2,431c-18.7,0.1-36-10.1-44.9-26.6c-8.9-16.5-8-36.6,2.4-52.3c0.6-0.9,1.4-1.8,2.4-2.4
					c15.7-10.2,35.7-11.1,52.3-2.4c16.5,8.8,26.8,26.1,26.7,44.8c-0.1,9.9-3,19.7-8.4,28c-0.6,0.9-1.4,1.8-2.4,2.4
					C411.9,428,402.2,431,392.2,431z M362.9,362.9c-7.9,13.3-5.6,30.3,5.4,41.1c10.9,10.9,27.8,13.1,41.1,5.4
					c3-5.2,4.7-11.2,4.7-17.2c0.1-18.7-15-34-33.8-34.1C374.2,358.1,368.1,359.7,362.9,362.9L362.9,362.9z"/>
				<path id="path864" class="st0" d="M462,378.7c-0.7,0-1.4-0.1-2-0.3c-3-0.7-5-3-6.1-6.1c-7.1-26.3-27.6-46.9-53.9-53.9
					c-3-0.7-5.2-3.1-5.7-6.1c-0.8-2.9,0.1-6.1,2.4-8.1l35.1-35.4c19.9-19.9,52.2-19.9,72.2,0c19.9,19.9,19.9,52.2,0,72.2l0,0
					L468.4,376C466.7,377.6,464.4,378.6,462,378.7L462,378.7z M417.5,306.5c21.6,9.4,38.8,26.7,48.2,48.2l25.6-26
					c8.8-8.5,12.4-21.1,9.4-33c-3.1-11.9-12.4-21.2-24.3-24.3c-11.9-3.1-24.6,0.5-33,9.4L417.5,306.5z"/>
				<path id="path866" class="st0" d="M392.2,431c-18.7,0.1-36-10.1-44.9-26.6c-8.9-16.5-8-36.6,2.4-52.3c0.6-0.9,1.4-1.8,2.4-2.4
					c15.7-10.2,35.7-11.1,52.3-2.4c16.5,8.8,26.8,26.1,26.7,44.8c-0.1,9.9-3,19.7-8.4,28c-0.6,0.9-1.4,1.8-2.4,2.4
					C411.9,428,402.2,431,392.2,431z M362.9,362.9c-7.9,13.3-5.6,30.3,5.4,41.1c10.9,10.9,27.8,13.1,41.1,5.4
					c3-5.2,4.7-11.2,4.7-17.2c0.1-18.7-15-34-33.8-34.1C374.2,358.1,368.1,359.7,362.9,362.9L362.9,362.9z"/>
				<path id="path868" class="st0" d="M462,378.7c-0.7,0-1.4-0.1-2-0.3c-3-0.7-5-3-6.1-6.1c-7.1-26.3-27.6-46.9-53.9-53.9
					c-3-0.7-5.2-3.1-5.7-6.1c-0.8-2.9,0.1-6.1,2.4-8.1l35.1-35.4c19.9-19.9,52.2-19.9,72.2,0c19.9,19.9,19.9,52.2,0,72.2l0,0
					L468.4,376C466.7,377.6,464.4,378.6,462,378.7L462,378.7z M417.5,306.5c21.6,9.4,38.8,26.7,48.2,48.2l25.6-26
					c8.8-8.5,12.4-21.1,9.4-33c-3.1-11.9-12.4-21.2-24.3-24.3c-11.9-3.1-24.6,0.5-33,9.4L417.5,306.5z"/>
				<path id="path870" class="st0" d="M304.9,560.8c-51.6,0-93.5-41.8-93.5-93.4c0-24.8,9.8-48.5,27.4-66.1l75.2-75.2
					c2.4-2.4,4.7-4.4,7.1-6.4c3.7-2.9,8.9-2.2,11.8,1.4c2.4,3,2.4,7.3,0,10.4c-15.5,19.1-20.9,44.4-14.5,68.1c0.8,2.9,0,5.9-2,8.1
					L281,443.1c-12.8,13.4-12.5,34.5,0.7,47.5c13.1,13.2,34.4,13.5,47.5,0.7l75.2-74.9c1.6-1.6,3.1-3.4,4.4-5.4
					c3.6-5.7,5.5-12.2,5.7-18.9c-0.1-12.5-7-23.9-17.9-30c-10.9-6-24.3-5.5-34.7,1.4c-3.3,2.1-7.6,1.7-10.5-1
					c-2.8-2.8-3.2-7.2-1-10.5c1.9-2.9,4-5.6,6.4-8.1l39.5-39.8c2.1-2.1,5.2-3,8.1-2.4c49.7,13.2,79.4,64.2,66.2,114
					c-3.4,12.8-9.5,24.8-17.9,35.1v0.3c-2,2.4-4,4.7-6.1,6.7L371,533.2C353.6,550.9,329.8,560.9,304.9,560.8L304.9,560.8z
					 M300.5,363.8l-49.6,49.3c-29.5,30.3-28.9,78.7,1.3,108.2c29.7,29,77.2,29,106.9,0l75.2-75.2c1.7-1.7,3.4-3.7,5.1-5.7l0.3-0.3
					c15.8-19.5,21-45.4,13.8-69.5c-7.1-24-25.3-43.1-48.9-51.3l-21.6,21.9c27.9,1.3,49.5,24.9,48.2,52.8c-0.4,9.2-3.3,18.1-8.4,25.8
					c-1.9,2.9-4,5.6-6.4,8.1l-75.2,75.2c-19.9,19.9-52.2,19.9-72.2,0c-19.9-19.9-19.9-52.2,0-72.2l32-32
					C298.3,387.5,298.1,375.5,300.5,363.8L300.5,363.8z"/>
				<path id="path872" class="st0" d="M392.2,431c-18.7,0.1-36-10.1-44.9-26.6c-8.9-16.5-8-36.6,2.4-52.3c0.6-0.9,1.4-1.8,2.4-2.4
					c23.7-15.4,55.4-8.6,70.8,15.1c11,17,11,38.8,0,55.7c-0.6,0.9-1.4,1.7-2.4,2.4C411.8,428,402.3,431,392.2,431z M362.9,362.9
					c-7.9,13.3-5.6,30.3,5.4,41.1c10.9,10.9,27.8,13.1,41.1,5.4c3-5.2,4.7-11.2,4.7-17.2c-0.2-18.9-15.7-34.1-34.6-33.9
					C373.7,358.4,367.9,360,362.9,362.9L362.9,362.9z"/>
				<path id="path874" class="st0" d="M304.9,518.3c-20.5,0-39-12.4-46.9-31.3c-7.7-19.1-3.3-41,11.1-55.6l35.1-35.1
					c2.1-2.1,5.2-3,8.1-2.4c3,0.7,5,3,6.1,6.1c7.1,26.3,27.6,46.9,54,54c3,0.7,5.1,3,6.1,6.1c0.8,2.9,0,5.9-2,8.1l-35.1,35.1
					C331.7,512.9,318.6,518.3,304.9,518.3L304.9,518.3z M306.5,417.5l-26,25.6c-12.8,13.4-12.5,34.5,0.7,47.5
					c13.1,13.2,34.4,13.5,47.5,0.7l26-25.6C333.2,456.3,316,439.1,306.5,417.5L306.5,417.5z"/>
				<path id="path876" class="st0" d="M392.2,431c-18.7,0.1-36-10.1-44.9-26.6c-8.9-16.5-8-36.6,2.4-52.3c0.6-0.9,1.4-1.8,2.4-2.4
					c23.7-15.4,55.4-8.6,70.8,15.1c11,17,11,38.8,0,55.7c-0.6,0.9-1.4,1.7-2.4,2.4C411.8,428,402.3,431,392.2,431z M362.9,362.9
					c-7.9,13.3-5.6,30.3,5.4,41.1c10.9,10.9,27.8,13.1,41.1,5.4c3-5.2,4.7-11.2,4.7-17.2c-0.2-18.9-15.7-34.1-34.6-33.9
					C373.7,358.4,367.9,360,362.9,362.9L362.9,362.9z"/>
				<path id="path878" class="st0" d="M304.9,518.3c-20.5,0-39-12.4-46.9-31.3c-7.7-19.1-3.3-41,11.1-55.6l35.1-35.1
					c2.1-2.1,5.2-3,8.1-2.4c3,0.7,5,3,6.1,6.1c7.1,26.3,27.6,46.9,54,54c3,0.7,5.1,3,6.1,6.1c0.8,2.9,0,5.9-2,8.1l-35.1,35.1
					C331.7,512.9,318.6,518.3,304.9,518.3L304.9,518.3z M306.5,417.5l-26,25.6c-12.8,13.4-12.5,34.5,0.7,47.5
					c13.1,13.2,34.4,13.5,47.5,0.7l26-25.6C333.2,456.3,316,439.1,306.5,417.5L306.5,417.5z"/>
			</g>
		</g>
	</g>
</g>
</svg>
